<svg width="22" height="22" viewBox="0 0 22 22" fill="none" xmlns="http://www.w3.org/2000/svg">
<g clip-path="url(#clip0_1728_1406)">
<path d="M21.9994 6.19017C21.9994 4.53668 21.3555 2.98226 20.1863 1.81307C19.0171 0.64388 17.4627 0 15.8092 0C14.1558 0 12.6013 0.64388 11.4321 1.81307L7.08008 6.16505L15.8343 14.9193L20.1863 10.5673C21.3555 9.39809 21.9994 7.84366 21.9994 6.19017Z" fill="white"/>
<path d="M6.1641 7.08057L1.81211 11.4326C-0.601455 13.8461 -0.601412 17.7732 1.81211 20.1868C2.98126 21.356 4.53577 21.9999 6.18922 21.9999C7.84267 21.9999 9.39718 21.356 10.5663 20.1868L14.9183 15.8348L6.1641 7.08057Z" fill="white"/>
</g>
<defs>
<clipPath id="clip0_1728_1406">
<rect width="22" height="22" fill="white"/>
</clipPath>
</defs>
</svg>
