<svg width="361" height="23" viewBox="0 0 361 23" fill="none" xmlns="http://www.w3.org/2000/svg">
<path d="M0.5 0V23" stroke="#E7E7E7"/>
<path d="M20.5 0V23" stroke="#E7E7E7"/>
<path d="M4.5 0V15" stroke="#E7E7E7"/>
<path d="M8.5 0V13" stroke="#E7E7E7"/>
<path d="M12.5 0V11" stroke="#E7E7E7"/>
<path d="M16.5 0V7" stroke="#E7E7E7"/>
<path d="M40.5 0V23" stroke="#E7E7E7"/>
<path d="M24.5 0V15" stroke="#E7E7E7"/>
<path d="M28.5 0V13" stroke="#E7E7E7"/>
<path d="M32.5 0V11" stroke="#E7E7E7"/>
<path d="M36.5 0V7" stroke="#E7E7E7"/>
<path d="M60.5 0V23" stroke="#E7E7E7"/>
<path d="M44.5 0V15" stroke="#E7E7E7"/>
<path d="M48.5 0V13" stroke="#E7E7E7"/>
<path d="M52.5 0V11" stroke="#E7E7E7"/>
<path d="M56.5 0V7" stroke="#E7E7E7"/>
<path d="M80.5 0V23" stroke="#E7E7E7"/>
<path d="M64.5 0V15" stroke="#E7E7E7"/>
<path d="M68.5 0V13" stroke="#E7E7E7"/>
<path d="M72.5 0V11" stroke="#E7E7E7"/>
<path d="M76.5 0V7" stroke="#E7E7E7"/>
<path d="M100.5 0V23" stroke="#E7E7E7"/>
<path d="M84.5 0V15" stroke="#E7E7E7"/>
<path d="M88.5 0V13" stroke="#E7E7E7"/>
<path d="M92.5 0V11" stroke="#E7E7E7"/>
<path d="M96.5 0V7" stroke="#E7E7E7"/>
<path d="M120.5 0V23" stroke="#E7E7E7"/>
<path d="M104.5 0V15" stroke="#E7E7E7"/>
<path d="M108.5 0V13" stroke="#E7E7E7"/>
<path d="M112.5 0V11" stroke="#E7E7E7"/>
<path d="M116.5 0V7" stroke="#E7E7E7"/>
<path d="M140.5 0V23" stroke="#E7E7E7"/>
<path d="M124.5 0V15" stroke="#E7E7E7"/>
<path d="M128.5 0V13" stroke="#E7E7E7"/>
<path d="M132.5 0V11" stroke="#E7E7E7"/>
<path d="M136.5 0V7" stroke="#E7E7E7"/>
<path d="M160.5 0V23" stroke="#E7E7E7"/>
<path d="M144.5 0V15" stroke="#E7E7E7"/>
<path d="M148.5 0V13" stroke="#E7E7E7"/>
<path d="M152.5 0V11" stroke="#E7E7E7"/>
<path d="M156.5 0V7" stroke="#E7E7E7"/>
<path d="M180.5 0V23" stroke="#E7E7E7"/>
<path d="M164.5 0V15" stroke="#E7E7E7"/>
<path d="M168.5 0V13" stroke="#E7E7E7"/>
<path d="M172.5 0V11" stroke="#E7E7E7"/>
<path d="M176.5 0V7" stroke="#E7E7E7"/>
<path d="M200.5 0V23" stroke="#E7E7E7"/>
<path d="M184.5 0V15" stroke="#E7E7E7"/>
<path d="M188.5 0V13" stroke="#E7E7E7"/>
<path d="M192.5 0V11" stroke="#E7E7E7"/>
<path d="M196.5 0V7" stroke="#E7E7E7"/>
<path d="M220.5 0V23" stroke="#E7E7E7"/>
<path d="M204.5 0V15" stroke="#E7E7E7"/>
<path d="M208.5 0V13" stroke="#E7E7E7"/>
<path d="M212.5 0V11" stroke="#E7E7E7"/>
<path d="M216.5 0V7" stroke="#E7E7E7"/>
<path d="M240.5 0V23" stroke="#E7E7E7"/>
<path d="M224.5 0V15" stroke="#E7E7E7"/>
<path d="M228.5 0V13" stroke="#E7E7E7"/>
<path d="M232.5 0V11" stroke="#E7E7E7"/>
<path d="M236.5 0V7" stroke="#E7E7E7"/>
<path d="M260.5 0V23" stroke="#E7E7E7"/>
<path d="M244.5 0V15" stroke="#E7E7E7"/>
<path d="M248.5 0V13" stroke="#E7E7E7"/>
<path d="M252.5 0V11" stroke="#E7E7E7"/>
<path d="M256.5 0V7" stroke="#E7E7E7"/>
<path d="M280.5 0V23" stroke="#E7E7E7"/>
<path d="M264.5 0V15" stroke="#E7E7E7"/>
<path d="M268.5 0V13" stroke="#E7E7E7"/>
<path d="M272.5 0V11" stroke="#E7E7E7"/>
<path d="M276.5 0V7" stroke="#E7E7E7"/>
<path d="M300.5 0V23" stroke="#E7E7E7"/>
<path d="M284.5 0V15" stroke="#E7E7E7"/>
<path d="M288.5 0V13" stroke="#E7E7E7"/>
<path d="M292.5 0V11" stroke="#E7E7E7"/>
<path d="M296.5 0V7" stroke="#E7E7E7"/>
<path d="M320.5 0V23" stroke="#E7E7E7"/>
<path d="M304.5 0V15" stroke="#E7E7E7"/>
<path d="M308.5 0V13" stroke="#E7E7E7"/>
<path d="M312.5 0V11" stroke="#E7E7E7"/>
<path d="M316.5 0V7" stroke="#E7E7E7"/>
<path d="M340.5 0V23" stroke="#E7E7E7"/>
<path d="M324.5 0V15" stroke="#E7E7E7"/>
<path d="M328.5 0V13" stroke="#E7E7E7"/>
<path d="M332.5 0V11" stroke="#E7E7E7"/>
<path d="M336.5 0V7" stroke="#E7E7E7"/>
<path d="M360.5 0V23" stroke="#E7E7E7"/>
<path d="M344.5 0V15" stroke="#E7E7E7"/>
<path d="M348.5 0V13" stroke="#E7E7E7"/>
<path d="M352.5 0V11" stroke="#E7E7E7"/>
<path d="M356.5 0V7" stroke="#E7E7E7"/>
</svg>
