<svg width="25" height="24" viewBox="0 0 25 24" fill="none" xmlns="http://www.w3.org/2000/svg">
<path d="M22.2587 16.7402V4.67019C22.2587 3.47019 21.2672 2.58019 20.0632 2.68019H20.0025C17.8778 2.86019 14.6503 3.93019 12.8493 5.05019L12.6773 5.16019C12.3839 5.34019 11.8983 5.34019 11.6049 5.16019L11.3519 5.01019C9.55097 3.90019 6.33356 2.84019 4.20885 2.67019C3.00485 2.57019 2.02344 3.47019 2.02344 4.66019V16.7402C2.02344 17.7002 2.81261 18.6002 3.78391 18.7202L4.07732 18.7602C6.27285 19.0502 9.66226 20.1502 11.6049 21.2002L11.6453 21.2202C11.9185 21.3702 12.3536 21.3702 12.6166 21.2202C14.5592 20.1602 17.9587 19.0502 20.1644 18.7602L20.4983 18.7202C21.4696 18.6002 22.2587 17.7002 22.2587 16.7402Z" stroke="#7C7C7C" stroke-width="1.5" stroke-linecap="round" stroke-linejoin="round"/>
<path d="M12.1406 5.49023V20.4902V5.49023Z" fill="#7C7C7C"/>
<path d="M12.1406 5.49023V20.4902" stroke="#7C7C7C" stroke-width="1.5" stroke-linecap="round" stroke-linejoin="round"/>
</svg>
