<svg width="154" height="154" viewBox="0 0 154 154" fill="none" xmlns="http://www.w3.org/2000/svg">
<circle opacity="0.1" cx="77" cy="77" r="77" fill="#694ACD"/>
<circle opacity="0.1" cx="77" cy="77" r="60" fill="#694ACD"/>
<g clip-path="url(#clip0_1320_2209)">
<path d="M77 41C57.149 41 41 57.1498 41 77C41 96.8502 57.149 113 77 113C96.851 113 113 96.8502 113 77C113 57.1498 96.851 41 77 41ZM93.9086 72.9923L77.1896 89.7112C75.3554 91.5454 72.3838 91.5455 70.5495 89.7112L60.874 80.0357C59.0397 78.2022 59.0397 75.2293 60.874 73.3956C62.7083 71.5613 65.6797 71.5613 67.514 73.3956L73.8695 79.7505L87.2686 66.352C89.1029 64.5177 92.0743 64.5177 93.9086 66.352C95.7429 68.1858 95.7429 71.1587 93.9086 72.9923Z" fill="#694ACD"/>
</g>
<defs>
<clipPath id="clip0_1320_2209">
<rect width="72" height="72" fill="white" transform="translate(41 41)"/>
</clipPath>
</defs>
</svg>
