<svg width="30" height="30" viewBox="0 0 30 30" fill="none" xmlns="http://www.w3.org/2000/svg">
<g clip-path="url(#clip0_1491_1636)">
<path d="M22.5068 5.46586C21.4424 2.24853 18.4224 0 15 0C11.5776 0 8.55756 2.24853 7.4932 5.46586C3.65754 4.65176 0.0585938 7.58947 0.0585938 11.4844C0.0585938 14.231 1.87189 16.6116 4.45312 17.3812V21.1523H9.72656V16.7578C9.72656 16.2724 10.1201 15.8789 10.6055 15.8789C11.0909 15.8789 11.4844 16.2724 11.4844 16.7578V21.1523H14.1211V16.7578C14.1211 16.2724 14.5146 15.8789 15 15.8789C15.4854 15.8789 15.8789 16.2724 15.8789 16.7578V21.1523H18.5156V16.7578C18.5156 16.2724 18.9091 15.8789 19.3945 15.8789C19.8799 15.8789 20.2734 16.2724 20.2734 16.7578V21.1523H25.5469V17.3812C28.1336 16.6099 29.9414 14.2248 29.9414 11.4844C29.9414 7.58701 26.3406 4.65211 22.5068 5.46586Z" fill="#333333"/>
<path d="M25.5469 22.9102H4.45312C3.96773 22.9102 3.57422 23.3037 3.57422 23.7891V29.1211C3.57422 29.6065 3.96773 30 4.45312 30H25.5469C26.0323 30 26.4258 29.6065 26.4258 29.1211V23.7891C26.4258 23.3037 26.0323 22.9102 25.5469 22.9102Z" fill="#333333"/>
</g>
<defs>
<clipPath id="clip0_1491_1636">
<rect width="30" height="30" fill="white"/>
</clipPath>
</defs>
</svg>
