<svg width="154" height="154" viewBox="0 0 154 154" fill="none" xmlns="http://www.w3.org/2000/svg">
<circle opacity="0.1" cx="77" cy="77" r="77" fill="#694ACD"/>
<circle opacity="0.1" cx="77" cy="77" r="60" fill="#694ACD"/>
<g clip-path="url(#clip0_1316_2060)">
<path d="M67.7157 59.1456C67.7157 54.0375 71.8685 49.8819 76.9728 49.8819C82.077 49.8819 86.2299 54.0375 86.2299 59.1456V66.6031H95.1057V59.1329C95.1057 49.1183 86.9874 41 76.9728 41C66.9582 41 58.8398 49.1183 58.8398 59.1329V66.6031H67.7157V59.1456Z" fill="#694ACD"/>
<path d="M97.5527 70.7739H56.3929C53.2503 70.7739 50.7031 73.3217 50.7031 76.4637V107.31C50.7031 110.453 53.2503 113 56.3929 113H97.5527C100.695 113 103.242 110.453 103.242 107.31V76.4637C103.242 73.3217 100.695 70.7739 97.5527 70.7739ZM92.3237 84.4865L74.3226 103.981C73.9288 104.408 73.3773 104.654 72.7966 104.663C72.7856 104.663 72.7747 104.663 72.7637 104.663C72.1951 104.663 71.6497 104.435 71.2503 104.029L62.7991 95.4283C61.9778 94.5928 61.9899 93.2492 62.8254 92.428C63.6615 91.6068 65.0051 91.6183 65.8264 92.4543L72.7159 99.4658L89.2064 81.6081C90.0012 80.7473 91.3432 80.6935 92.2045 81.4883C93.0653 82.2832 93.1186 83.6257 92.3237 84.4865Z" fill="#694ACD"/>
</g>
<defs>
<clipPath id="clip0_1316_2060">
<rect width="72" height="72" fill="white" transform="translate(41 41)"/>
</clipPath>
</defs>
</svg>
