<svg width="22" height="22" viewBox="0 0 22 22" fill="none" xmlns="http://www.w3.org/2000/svg">
<g clip-path="url(#clip0_0_102)">
<path d="M11.1463 10.6516C11.1188 10.6516 11.1005 10.6516 11.073 10.6516C11.0272 10.6425 10.963 10.6425 10.908 10.6516C8.24969 10.5691 6.24219 8.47915 6.24219 5.90331C6.24219 3.28165 8.37802 1.14581 10.9997 1.14581C13.6213 1.14581 15.7572 3.28165 15.7572 5.90331C15.748 8.47915 13.7313 10.5691 11.1738 10.6516C11.1647 10.6516 11.1555 10.6516 11.1463 10.6516ZM10.9997 2.52081C9.13885 2.52081 7.61719 4.04248 7.61719 5.90331C7.61719 7.73665 9.04719 9.21248 10.8713 9.27665C10.9172 9.26748 11.0455 9.26748 11.1647 9.27665C12.9613 9.19415 14.373 7.71831 14.3822 5.90331C14.3822 4.04248 12.8605 2.52081 10.9997 2.52081Z" fill="#333333"/>
<path d="M11.156 20.6708C9.35929 20.6708 7.55346 20.2125 6.18763 19.2958C4.91346 18.4525 4.2168 17.2975 4.2168 16.0416C4.2168 14.7858 4.91346 13.6216 6.18763 12.7691C8.93763 10.945 13.3926 10.945 16.1243 12.7691C17.3893 13.6125 18.0951 14.7675 18.0951 16.0233C18.0951 17.2791 17.3985 18.4433 16.1243 19.2958C14.7493 20.2125 12.9526 20.6708 11.156 20.6708ZM6.94846 13.9241C6.06846 14.5108 5.5918 15.2625 5.5918 16.0508C5.5918 16.83 6.07763 17.5816 6.94846 18.1591C9.23095 19.69 13.081 19.69 15.3635 18.1591C16.2435 17.5725 16.7201 16.8208 16.7201 16.0325C16.7201 15.2533 16.2343 14.5016 15.3635 13.9241C13.081 12.4025 9.23095 12.4025 6.94846 13.9241Z" fill="#333333"/>
</g>
<defs>
<clipPath id="clip0_0_102">
<rect width="22" height="22" fill="white"/>
</clipPath>
</defs>
</svg>
