<svg width="30" height="30" viewBox="0 0 30 30" fill="none" xmlns="http://www.w3.org/2000/svg">
<g clip-path="url(#clip0_1491_1644)">
<path d="M3.49324 4.36576C3.73775 4.50691 3.99199 4.6152 4.2491 4.69758C5.25416 3.9191 6.45082 3.37729 7.75523 3.15592C7.42629 2.33889 6.79594 1.19813 5.69051 0.559922C4.2358 -0.280019 2.43744 0.0277154 1.73174 0.199102C1.53779 0.246153 1.36939 0.372129 1.26972 0.544747C1.17006 0.717364 1.14515 0.926251 1.20135 1.11773C1.40578 1.81453 2.03842 3.52576 3.49324 4.36576Z" fill="#333333"/>
<path d="M10.1908 3.12115C10.4239 2.51599 10.8257 1.97921 11.3596 1.58775C11.7511 1.3007 11.8357 0.750679 11.5487 0.359214C11.2616 -0.0323095 10.7115 -0.116743 10.3201 0.170132C9.34326 0.886558 8.65695 1.92332 8.36328 3.07703C8.60012 3.05558 8.83977 3.04404 9.08205 3.04404C9.455 3.04398 9.82543 3.07 10.1908 3.12115Z" fill="#333333"/>
<path d="M10.661 24.1006C9.84023 21.8456 9.7115 19.4477 10.2887 17.1661C10.5479 16.1418 10.5203 15.1484 10.2091 14.2934C9.48545 12.305 9.57867 10.1555 10.4716 8.24063C10.9243 7.2699 11.5551 6.4183 12.3255 5.72004C11.3706 5.12742 10.2556 4.80176 9.08203 4.80176C5.68963 4.80176 2.92969 7.5617 2.92969 10.9586C2.92969 12.2224 2.51074 13.507 1.71809 14.6734C0.594141 16.3275 0 18.2832 0 20.3291C0 25.66 4.07414 29.9971 9.08203 29.9971C10.6967 29.9971 12.275 29.5321 13.6516 28.6802C12.3327 27.4329 11.3057 25.872 10.661 24.1006Z" fill="#333333"/>
<path d="M29.3824 17.2872C28.6826 15.3646 27.4555 13.73 25.8336 12.5601C24.6898 11.7352 23.8568 10.6714 23.4245 9.48374L23.423 9.47958C22.8609 7.93534 21.7311 6.70241 20.2418 6.00784C18.7524 5.31339 17.0816 5.2405 15.5375 5.80247C13.9933 6.36456 12.7603 7.49431 12.0658 8.9837C11.3712 10.473 11.2983 12.1438 11.8619 13.6922C12.2942 14.8798 12.3398 16.2302 11.9939 17.5974C11.5034 19.536 11.6141 21.577 12.3138 23.4995C13.1932 25.9155 14.9016 27.8691 17.1244 29.0005C18.4295 29.6649 19.8204 30.0001 21.2067 30.0001C22.203 30.0001 23.197 29.827 24.1547 29.4784C28.8605 27.7655 31.2056 22.2966 29.3824 17.2872ZM25.6833 23.174C25.2105 24.6401 24.2405 25.7058 22.9522 26.1747C21.6639 26.6436 20.236 26.4507 18.9314 25.6315C17.6968 24.8563 16.7154 23.601 16.1679 22.0968C15.6204 20.5926 15.5653 19.0001 16.0127 17.6127C16.4855 16.1466 17.4555 15.081 18.7438 14.612C20.0321 14.1432 21.46 14.336 22.7647 15.1552C23.9993 15.9304 24.9807 17.1857 25.5282 18.6899C26.0756 20.1942 26.1307 21.7866 25.6833 23.174Z" fill="#333333"/>
<path d="M21.8286 16.6438C20.9935 16.1195 20.111 15.9845 19.3437 16.2637C18.5763 16.5431 17.987 17.2137 17.6843 18.1522C17.3563 19.1694 17.4039 20.3567 17.8184 21.4955C18.2328 22.6342 18.9595 23.5743 19.8647 24.1427C20.6998 24.6671 21.5824 24.802 22.3497 24.5228C23.117 24.2435 23.7063 23.5728 24.009 22.6343C24.3371 21.6171 24.2895 20.4298 23.875 19.291C23.4606 18.1523 22.7338 17.2122 21.8286 16.6438Z" fill="#333333"/>
</g>
<defs>
<clipPath id="clip0_1491_1644">
<rect width="30" height="30" fill="white"/>
</clipPath>
</defs>
</svg>
