<svg width="397" height="199" viewBox="0 0 397 199" fill="none" xmlns="http://www.w3.org/2000/svg">
<path opacity="0.2" d="M8.03798 103.842C5.82994 103.432 2.05754 105.38 0.44735 106.405V199H396.522V92.9097C394.625 92.9097 394.97 92.9097 391.865 89.4932C388.759 86.0767 387.897 84.5392 382.722 87.1016C377.547 89.664 376.856 87.1016 373.406 82.4893C369.956 77.877 368.231 79.2436 364.091 80.7811C359.951 82.3185 359.261 75.998 354.858 71.7273C350.455 67.4567 348.565 76.8521 346.84 83.5143C345.126 90.1361 341.196 96.2517 337.591 101.861L337.525 101.963C333.902 107.601 328.555 99.7427 326.83 96.3262C325.105 92.9097 324.587 92.3972 319.412 92.9097C314.237 93.4221 312.684 91.2014 310.959 87.1016C309.234 83.0018 309.579 84.0267 305.611 80.7811C301.644 77.5354 299.746 79.7561 297.504 79.2436C295.261 78.7312 292.673 72.7523 290.948 69.3358C289.223 65.9193 289.396 63.5277 284.221 65.0651C279.12 66.5805 278.041 64.7768 275.368 60.3085L275.25 60.1112C272.49 55.4989 270.593 54.1323 265.072 51.7408C259.552 49.3492 261.277 50.3741 257.137 51.7408C252.997 53.1075 250.927 51.2283 248.339 47.9826C245.752 44.737 246.614 38.2456 239.541 40.808C232.469 43.3704 230.916 37.2206 229.364 30.7293C227.811 24.2379 223.498 24.2379 219.186 25.6045C214.873 26.971 212.975 17.5757 212.63 11.0844C212.285 4.59303 211.94 2.03066 206.938 2.03066C201.935 2.03066 202.28 12.2801 200.382 25.6045C198.485 38.9288 199.52 39.2705 193.827 39.783C188.135 40.2955 188.135 40.2954 185.029 50.3741C181.924 60.4528 180.717 60.1111 175.197 60.1111C169.676 60.1111 167.606 68.1399 165.709 76.5104C163.834 84.7815 159.769 82.5445 153.681 79.194L153.461 79.0727C147.251 75.6562 145.87 76.5104 141.903 64.3818C137.935 52.2531 132.933 57.8905 130.69 65.4068C128.447 72.9231 127.24 73.9481 123.445 76.5104C119.65 79.0728 115.854 79.7561 114.474 84.3684C113.094 88.9806 108.437 92.7388 104.469 90.0056C100.501 87.2724 97.5687 87.9557 95.3261 92.7388C93.0836 97.5219 90.841 97.3511 88.2534 97.8636C85.6658 98.3761 80.1456 97.8636 77.3855 102.647C74.6254 107.43 70.8302 106.405 68.7602 105.38C66.6901 104.355 62.3774 103.842 60.9974 105.38C59.6173 106.917 55.4772 112.384 50.9026 103.842C46.328 95.3012 41.1591 100.939 40.1241 102.647L40.0827 102.715C39.0255 104.461 36.6242 108.428 32.8788 106.405C29.0837 104.355 25.9786 103.842 23.046 106.405C20.1134 108.967 17.3533 109.992 15.2832 108.455C13.2131 106.917 10.798 104.355 8.03798 103.842Z" fill="#694ACD"/>
<path opacity="0.6" d="M2.00038 105.562C3.59804 104.545 7.34107 102.613 9.53193 103.02C12.2705 103.528 14.6668 106.071 16.7207 107.596C18.7747 109.122 21.5133 108.105 24.4231 105.562C27.3329 103.02 30.4138 103.528 34.1794 105.562C37.945 107.596 40.3413 103.528 41.3683 101.833C42.3953 100.138 47.524 94.545 52.0629 103.02C56.6019 111.495 60.7098 106.071 62.0791 104.545C63.4484 103.02 67.7275 103.528 69.7815 104.545C71.8355 105.562 75.6011 106.579 78.3397 101.833C81.0783 97.0874 86.5555 97.5959 89.123 97.0874C91.6905 96.5789 93.9156 96.7484 96.1407 92.0025C98.3658 87.2566 101.276 86.5787 105.212 89.2906C109.149 92.0025 113.771 88.2736 115.14 83.6972C116.509 79.1209 120.275 78.4429 124.04 75.9005C127.806 73.358 129.004 72.3411 131.229 64.8833C133.454 57.4254 138.418 51.832 142.355 63.8662C146.292 75.9005 147.661 75.0529 153.823 78.4428C159.985 81.8327 164.093 84.2058 165.976 75.9005C167.858 67.5951 169.912 59.6288 175.39 59.6288C180.867 59.6288 182.065 59.9678 185.146 49.9676C188.227 39.9673 188.227 39.9674 193.875 39.4589C199.524 38.9504 198.497 38.6114 200.379 25.3907C202.262 12.1701 201.92 2.00038 206.884 2.00038C211.847 2.00038 212.19 4.54281 212.532 10.9836C212.874 17.4245 214.757 26.7466 219.036 25.3907C223.315 24.0348 227.594 24.0348 229.135 30.4756C230.675 36.9165 232.216 43.0183 239.234 40.4759C246.251 37.9335 245.395 44.3743 247.963 47.5947C250.53 50.8151 252.584 52.6797 256.692 51.3236C260.8 49.9676 259.089 48.9507 264.566 51.3236C270.043 53.6965 271.926 55.0525 274.664 59.6289C277.403 64.2053 278.43 66.0697 283.565 64.5443C288.7 63.0188 288.529 65.3917 290.24 68.7817C291.952 72.1716 294.519 78.1039 296.745 78.6124C298.97 79.1209 300.852 76.9175 304.789 80.1379C308.726 83.3583 308.384 82.3413 310.095 86.4092C311.807 90.4771 313.347 92.6805 318.482 92.1721C323.617 91.6636 324.131 92.1721 325.842 95.562C327.554 98.9519 332.86 106.749 336.455 101.155C340.049 95.562 343.986 89.4601 345.697 82.8498C347.409 76.2395 349.284 66.9172 353.653 71.1546C358.021 75.392 358.706 81.6633 362.814 80.1379C366.922 78.6124 368.633 77.2564 372.057 81.8328C375.48 86.4092 376.165 88.9516 381.299 86.4092C386.434 83.8668 387.29 85.3922 390.371 88.7822C393.452 92.1721 393.11 92.1721 394.993 92.1721" stroke="#694ACD" stroke-width="4" stroke-linecap="round"/>
</svg>
