<svg width="25" height="24" viewBox="0 0 25 24" fill="none" xmlns="http://www.w3.org/2000/svg">
<path d="M22.2592 4.85005V16.7401C22.2592 17.7101 21.4599 18.6001 20.4785 18.7201L20.1649 18.7601C18.5056 18.9801 16.1684 19.6601 14.2865 20.4401C13.6289 20.7101 12.9004 20.2201 12.9004 19.5101V5.60005C12.9004 5.23005 13.1129 4.89005 13.4467 4.71005C15.2983 3.72005 18.1009 2.84005 20.003 2.68005H20.0637C21.2778 2.68005 22.2592 3.65005 22.2592 4.85005Z" fill="#62B47F"/>
<path d="M3.85763 18.2241L3.85506 18.2237C3.11765 18.1336 2.51367 17.4506 2.51367 16.7401V4.85005C2.51367 3.93169 3.2657 3.18005 4.2092 3.18005H4.25872C6.08346 3.33823 8.80618 4.19177 10.5996 5.1505C10.7755 5.2456 10.8725 5.40892 10.8725 5.60005V19.5101C10.8725 19.865 10.5046 20.1117 10.177 19.9778C8.26653 19.186 5.88681 18.4915 4.17374 18.2644L4.17128 18.2641L3.85763 18.2241ZM6.13308 8.74005H5.05908C5.01479 8.74005 4.91547 8.74384 4.80836 8.79676C4.6731 8.86358 4.54292 9.0043 4.52175 9.20748C4.50536 9.36492 4.56472 9.48232 4.58984 9.52696C4.6207 9.58179 4.65593 9.6235 4.68027 9.64995C4.76975 9.74717 4.89928 9.83671 5.01495 9.90727C5.01511 9.90737 5.01528 9.90747 5.01544 9.90757C5.00539 9.99864 5.01504 10.113 5.08256 10.2306C5.15857 10.3631 5.26594 10.4306 5.36141 10.4648L6.80727 11.4175L6.93246 11.5H7.08238C7.40078 11.5 7.61646 11.3171 7.72903 11.1237C7.81295 10.9796 7.84556 10.8259 7.85837 10.711C7.86297 10.6976 7.86715 10.6848 7.87091 10.6728C7.9141 10.5353 7.95802 10.3293 7.98653 10.1204C8.01443 9.91585 8.03419 9.662 8.0067 9.44192C7.99353 9.33643 7.964 9.18848 7.88154 9.05326C7.872 9.03762 7.8616 9.02201 7.85034 9.00655C7.84941 8.92053 7.84388 8.83223 7.83408 8.74213C7.82409 8.60232 7.76145 8.42854 7.58849 8.31322C7.43297 8.20952 7.27217 8.21307 7.19813 8.21966C7.04366 8.23341 6.89086 8.29852 6.78486 8.34919C6.5871 8.44374 6.35415 8.58765 6.13308 8.74005ZM8.09438 11.7401H6.71467C6.66117 11.7245 6.60913 11.7107 6.55918 11.699C6.43663 11.6703 6.27412 11.641 6.1199 11.658C6.05778 11.6648 5.95965 11.6828 5.85989 11.7401H5.05908C5.03321 11.7401 4.99187 11.7411 4.94524 11.749C4.94467 11.7491 4.94394 11.7492 4.94307 11.7493C4.91852 11.7533 4.77951 11.7757 4.66178 11.8922C4.58181 11.9713 4.51376 12.093 4.51163 12.2446C4.50971 12.3805 4.56193 12.4802 4.5956 12.5314C4.61787 12.5652 4.64229 12.5934 4.6652 12.616C4.63605 12.6457 4.59564 12.6935 4.56381 12.7588C4.51032 12.8686 4.46147 13.0875 4.61362 13.2901C4.72601 13.4398 4.87902 13.4762 4.91802 13.4851C4.97691 13.4984 5.0286 13.5 5.05908 13.5H8.09438C8.13034 13.5 8.19337 13.4976 8.26499 13.4767C8.33013 13.4577 8.47759 13.401 8.57221 13.2384C8.67602 13.0599 8.64223 12.8857 8.60796 12.7948C8.57588 12.7099 8.52872 12.6512 8.50467 12.6234C8.49995 12.618 8.4951 12.6126 8.49014 12.6072C8.53491 12.5634 8.64619 12.4373 8.64176 12.2361C8.63618 11.983 8.45987 11.8537 8.3984 11.8166C8.33039 11.7756 8.26861 11.7605 8.24667 11.7554C8.21738 11.7487 8.19241 11.7455 8.17656 11.7439C8.14466 11.7406 8.11527 11.7401 8.09438 11.7401Z" fill="#62B47F" stroke="#62B47F"/>
</svg>
