<svg width="24" height="24" viewBox="0 0 24 24" fill="none" xmlns="http://www.w3.org/2000/svg">
<g clip-path="url(#clip0_0_396)">
<path d="M7.56055 6.44C7.56055 7.3101 7.8068 8.11952 8.2345 8.80222C7.80459 8.11853 7.56055 7.30858 7.56055 6.44ZM7.56055 6.44C7.56055 4.03743 9.4889 2.06814 11.876 2.00173C9.48743 2.06805 7.56055 4.03586 7.56055 6.44ZM12.0005 2C14.4459 2 16.4398 3.99349 16.4405 6.43867C16.4398 3.99507 14.4443 2 12.0005 2ZM16.4396 6.51758C16.392 8.79666 14.6677 10.6419 12.4457 10.8527C14.673 10.6353 16.3917 8.78178 16.4396 6.51758ZM12.1332 10.87H12.1331C12.1052 10.8669 12.0772 10.8648 12.0495 10.8637C12.0733 10.8645 12.0985 10.8659 12.123 10.8678L12.1517 10.87H12.1515H12.1514H12.1512H12.151H12.1509H12.1507H12.1505H12.1504H12.1502H12.15H12.1499H12.1497H12.1496H12.1494H12.1492H12.1491H12.1489H12.1487H12.1486H12.1484H12.1483H12.1481H12.1479H12.1478H12.1476H12.1475H12.1473H12.1471H12.147H12.1468H12.1467H12.1465H12.1463H12.1462H12.146H12.1459H12.1457H12.1455H12.1454H12.1452H12.1451H12.1449H12.1447H12.1446H12.1444H12.1443H12.1441H12.144H12.1438H12.1436H12.1435H12.1433H12.1432H12.143H12.1429H12.1427H12.1425H12.1424H12.1422H12.1421H12.1419H12.1418H12.1416H12.1415H12.1413H12.1411H12.141H12.1408H12.1407H12.1405H12.1404H12.1402H12.1401H12.1399H12.1398H12.1396H12.1394H12.1393H12.1391H12.139H12.1388H12.1387H12.1385H12.1384H12.1382H12.1381H12.1379H12.1378H12.1376H12.1375H12.1373H12.1372H12.137H12.1368H12.1367H12.1365H12.1364H12.1362H12.1361H12.1359H12.1358H12.1356H12.1355H12.1353H12.1352H12.135H12.1349H12.1347H12.1346H12.1344H12.1343H12.1341H12.134H12.1338H12.1337H12.1335H12.1334H12.1332ZM11.9905 10.8625C11.9912 10.8625 11.9919 10.8625 11.9926 10.8625C11.9855 10.8625 11.9784 10.8626 11.9713 10.8627L11.9715 10.8627C11.9767 10.8626 11.983 10.8625 11.9905 10.8625Z" stroke="#7C7C7C" stroke-width="1.5"/>
<path d="M12.1696 22.55C10.2096 22.55 8.23961 22.05 6.74961 21.05C5.35961 20.13 4.59961 18.87 4.59961 17.5C4.59961 16.13 5.35961 14.86 6.74961 13.93C9.74961 11.94 14.6096 11.94 17.5896 13.93C18.9696 14.85 19.7396 16.11 19.7396 17.48C19.7396 18.85 18.9796 20.12 17.5896 21.05C16.0896 22.05 14.1296 22.55 12.1696 22.55ZM7.57961 15.19C6.61961 15.83 6.09961 16.65 6.09961 17.51C6.09961 18.36 6.62961 19.18 7.57961 19.81C10.0696 21.48 14.2696 21.48 16.7596 19.81C17.7196 19.17 18.2396 18.35 18.2396 17.49C18.2396 16.64 17.7096 15.82 16.7596 15.19C14.2696 13.53 10.0696 13.53 7.57961 15.19Z" fill="#7C7C7C"/>
</g>
<defs>
<clipPath id="clip0_0_396">
<rect width="24" height="24" fill="white"/>
</clipPath>
</defs>
</svg>
