<svg width="22" height="22" viewBox="0 0 22 22" fill="none" xmlns="http://www.w3.org/2000/svg">
<g clip-path="url(#clip0_0_29)">
<path d="M12.1433 2.29425C11.8916 2.04254 11.4835 2.04254 11.2318 2.29425C10.9801 2.54596 10.9801 2.95404 11.2318 3.20575L12.4948 4.46877L10.4844 6.47915L15.5209 11.5156L17.5312 9.50527L18.7943 10.7683C18.9201 10.8941 19.085 10.9571 19.25 10.9571C19.8191 10.9571 20.1129 10.2639 19.7057 9.85675C17.5653 7.71635 21.9015 12.0525 12.1433 2.29425Z" fill="white"/>
<path d="M9.57286 7.39062L8.05662 8.90686L9.73696 10.5872C10.1442 10.9945 9.85022 11.6875 9.28123 11.6875C9.11627 11.6875 8.95131 11.6246 8.8255 11.4987L7.14512 9.81836L5.65037 11.3131L7.33071 12.9935C7.73796 13.4007 7.44397 14.0938 6.87498 14.0938C6.71002 14.0938 6.54506 14.0308 6.41925 13.905L4.73887 12.2246L3.89325 13.0702C3.13756 13.8259 3.13747 15.049 3.89325 15.8047L4.58848 16.5L0.188783 20.8997C-0.0629277 21.1514 -0.0629277 21.5595 0.188783 21.8112C0.440451 22.0629 0.848568 22.0629 1.10028 21.8112L5.49998 17.4115L6.19521 18.1067C6.94906 18.8606 8.17582 18.8607 8.92974 18.1067L14.6094 12.4271L9.57286 7.39062Z" fill="white"/>
<path d="M21.8116 5.08722C21.2979 4.57344 17.4546 0.730232 16.9132 0.188783C16.6615 -0.0629277 16.2534 -0.0629277 16.0017 0.188783C15.75 0.440494 15.75 0.848568 16.0017 1.10028L16.792 1.89065L15.1777 3.50494L18.4955 6.82269L20.1098 5.20839L20.9001 5.99876C21.1518 6.25043 21.5599 6.25047 21.8116 5.99876C22.0633 5.74705 22.0633 5.33893 21.8116 5.08722Z" fill="white"/>
</g>
<defs>
<clipPath id="clip0_0_29">
<rect width="22" height="22" fill="white"/>
</clipPath>
</defs>
</svg>
