<svg width="28" height="28" viewBox="0 0 28 28" fill="none" xmlns="http://www.w3.org/2000/svg">
<g clip-path="url(#clip0_1507_3531)">
<path d="M15.4551 2.91996C15.1348 2.5996 14.6153 2.5996 14.295 2.91996C13.9746 3.24032 13.9746 3.75968 14.295 4.08004L15.9024 5.68753L13.3438 8.24619L19.7538 14.6563L22.3125 12.0976L23.92 13.7051C24.0801 13.8653 24.2901 13.9453 24.5 13.9453C25.2243 13.9453 25.5982 13.0632 25.08 12.545C22.3559 9.82081 27.8747 15.3396 15.4551 2.91996Z" fill="#2A8BB5"/>
<path d="M12.1836 9.40625L10.2539 11.336L12.3925 13.4746C12.9108 13.9929 12.5366 14.875 11.8125 14.875C11.6025 14.875 11.3926 14.7949 11.2325 14.6348L9.09379 12.4961L7.19138 14.3985L9.32999 16.5371C9.84832 17.0554 9.47415 17.9375 8.74997 17.9375C8.54003 17.9375 8.33008 17.8574 8.16996 17.6973L6.03129 15.5586L4.95504 16.6348C3.99325 17.5966 3.99314 19.1533 4.95504 20.1151L5.83989 20.9999L0.24027 26.5996C-0.0800899 26.92 -0.0800899 27.4393 0.24027 27.7597C0.560574 28.08 1.08 28.0801 1.40036 27.7597L6.99997 22.1601L7.88482 23.0449C8.84425 24.0044 10.4056 24.0045 11.3651 23.0449L18.5937 15.8163L12.1836 9.40625Z" fill="#2A8BB5"/>
<path d="M27.7596 6.47464C27.1057 5.82075 22.2143 0.929387 21.5252 0.24027C21.2049 -0.0800898 20.6855 -0.0800898 20.3651 0.24027C20.0447 0.560629 20.0447 1.08 20.3651 1.40036L21.371 2.40628L19.3164 4.46083L23.539 8.68342L25.5935 6.62886L26.5995 7.63479C26.9198 7.95509 27.4392 7.95514 27.7596 7.63479C28.0799 7.31443 28.0799 6.795 27.7596 6.47464Z" fill="#2A8BB5"/>
</g>
<defs>
<clipPath id="clip0_1507_3531">
<rect width="28" height="28" fill="white"/>
</clipPath>
</defs>
</svg>
