<svg width="28" height="28" viewBox="0 0 28 28" fill="none" xmlns="http://www.w3.org/2000/svg">
<g clip-path="url(#clip0_1507_3526)">
<path d="M27.998 7.8784C27.998 5.77396 27.1785 3.7956 25.6904 2.30754C24.2024 0.819484 22.224 0 20.1196 0C18.0152 0 16.0368 0.819484 14.5487 2.30754L9.00977 7.84643L20.1515 18.9882L25.6904 13.4493C27.1785 11.9612 27.998 9.98285 27.998 7.8784Z" fill="#5F619D"/>
<path d="M7.84468 9.01172L2.30579 14.5506C-0.766021 17.6224 -0.765966 22.6206 2.30579 25.6924C3.7938 27.1804 5.77227 27.9999 7.87666 27.9999C9.98104 27.9999 11.9595 27.1804 13.4475 25.6924L18.9864 20.1535L7.84468 9.01172Z" fill="#5F619D"/>
</g>
<defs>
<clipPath id="clip0_1507_3526">
<rect width="28" height="28" fill="white"/>
</clipPath>
</defs>
</svg>
