<svg width="25" height="25" viewBox="0 0 25 25" fill="none" xmlns="http://www.w3.org/2000/svg">
<path d="M12.5196 3.03112C9.07183 3.03112 6.26984 5.8331 6.26984 9.2809L6.26984 12.2912C6.26984 12.9266 5.99902 13.8953 5.67611 14.437L4.47824 16.4265C3.73868 17.6556 4.24908 19.0201 5.6032 19.4785C10.0926 20.9784 14.9362 20.9784 19.4256 19.4785C20.686 19.0618 21.2381 17.5723 20.5506 16.4265L19.3527 14.437C19.0402 13.8953 18.7694 12.9266 18.7694 12.2912V9.2809C18.7694 5.84352 15.957 3.03112 12.5196 3.03112Z" stroke="#333333" stroke-width="1.5" stroke-miterlimit="10" stroke-linecap="round"/>
<path d="M14.4465 3.33337C14.1236 3.23962 13.7902 3.16671 13.4465 3.12504C12.4465 3.00005 11.4882 3.07296 10.5924 3.33337C10.8945 2.56256 11.6445 2.02091 12.5195 2.02091C13.3944 2.02091 14.1444 2.56256 14.4465 3.33337Z" stroke="#333333" stroke-width="1.5" stroke-miterlimit="10" stroke-linecap="round" stroke-linejoin="round"/>
<path d="M15.6458 19.8536C15.6458 21.5723 14.2396 22.9785 12.5209 22.9785C11.6667 22.9785 10.8751 22.6243 10.3126 22.0618C9.75013 21.4994 9.39597 20.7077 9.39597 19.8536" stroke="#333333" stroke-width="1.5" stroke-miterlimit="10"/>
</svg>
