<svg width="75" height="100" viewBox="0 0 75 100" fill="none" xmlns="http://www.w3.org/2000/svg">
<g clip-path="url(#clip0_1471_1411)">
<path d="M60.1672 32.0771C59.5093 32.4933 59.2284 32.6433 58.9781 32.8339C56.1932 34.9545 53.7425 35.2108 50.2881 33.3715C42.0351 28.9778 31.111 33.6076 29.0718 43.1402C27.6232 49.9118 29.0154 56.3236 32.6406 62.1866C36.8695 69.0261 42.9211 73.9206 49.5798 78.1374C50.1576 78.5033 50.8297 78.75 51.3336 79.1956C53.3647 80.9917 55.2715 80.5758 57.23 79.0569C61.3028 75.8976 65.4069 72.7797 69.4984 69.6451C69.6957 69.4939 69.8934 69.3433 70.4835 69.3289C70.1034 71.0519 69.8801 72.829 69.3188 74.4892C64.7446 88.0228 55.6231 96.5026 41.6822 99.2948C31.0606 101.422 21.451 98.6662 13.0685 91.9519C6.55423 86.7342 2.5052 79.7707 0.743751 71.5273C-1.04463 63.1586 0.57999 55.1686 3.61573 47.3872C7.44557 37.5704 12.5491 28.4495 18.6269 19.886C22.8359 13.9557 27.1998 8.13569 31.314 2.13975C33.0616 -0.406963 37.1578 -0.848449 39.0672 1.73158C41.5802 5.12698 44.3312 8.35034 46.7183 11.8313C51.2804 18.483 55.6573 25.2649 60.1672 32.0771Z" fill="#FC5C5C"/>
<path d="M53.9048 42.7721C55.8718 41.1423 57.6241 39.12 59.8236 37.9814C65.3027 35.1451 73.2852 37.2698 74.6817 44.7565C75.5823 49.5843 74.523 54.325 72.1224 58.6694C68.7921 64.6964 63.7405 69.0097 58.1058 72.6303C53.2557 75.7467 55.1958 75.8194 50.169 72.5685C45.0335 69.2474 40.4254 65.3195 37.1071 60.0368C34.691 56.1906 33.2763 52.008 33.3869 47.4394C33.4911 43.1338 35.0308 39.5734 39.2823 37.7879C43.6499 35.9534 48.3442 36.7828 51.4886 39.9972C52.4369 40.9667 53.2766 42.0454 53.9048 42.7721ZM51.2513 58.6377C51.3365 58.9439 51.3869 59.0426 51.3882 59.1419C51.3993 60.2091 51.4053 61.2763 51.4078 62.3435C51.4132 64.7207 51.4243 64.7505 53.8097 64.7243C57.5056 64.6836 57.0802 65.2913 57.1084 61.4346C57.1306 58.373 56.7527 58.6418 59.9376 58.6383C63.1558 58.6345 63.1558 58.6373 63.1267 55.4165C63.1083 53.3616 62.9502 53.1966 60.9927 53.1921C60.3066 53.1905 59.6113 53.1188 58.9367 53.2069C57.44 53.402 57.0602 52.7657 57.0761 51.3035C57.1299 46.3856 57.7013 47.1959 52.7125 47.0914C51.728 47.0709 51.392 47.5095 51.4053 48.4236C51.4227 49.5975 51.3761 50.7733 51.4179 51.9459C51.4499 52.8407 51.074 53.2139 50.2073 53.1953C49.0468 53.1704 47.884 53.2184 46.7253 53.1671C45.8058 53.1265 45.3294 53.6621 45.5365 54.4115C45.9207 55.801 44.5571 57.5298 46.3195 58.6043C46.5536 58.7472 46.941 58.6367 47.2574 58.6373C48.57 58.6386 49.8823 58.6377 51.2513 58.6377Z" fill="#62B47F"/>
<path d="M51.2515 58.6381C49.8825 58.6381 48.5702 58.639 47.2579 58.6374C46.9415 58.6371 46.5541 58.7473 46.32 58.6044C44.5576 57.5299 45.9212 55.8011 45.537 54.4116C45.3299 53.6622 45.8063 53.1262 46.7258 53.1672C47.8848 53.2188 49.0476 53.1704 50.2078 53.1954C51.0745 53.2143 51.4504 52.8408 51.4184 51.9459C51.3766 50.7733 51.4229 49.5976 51.4058 48.4237C51.3925 47.5093 51.7286 47.0707 52.713 47.0915C57.7015 47.196 57.1304 46.3857 57.0766 51.3036C57.0604 52.7658 57.4405 53.4021 58.9372 53.207C59.6118 53.1189 60.3071 53.1906 60.9932 53.1922C62.9507 53.1967 63.1088 53.3617 63.1271 55.4166C63.1563 58.6378 63.1563 58.6349 59.9381 58.6384C56.7532 58.6419 57.1311 58.3731 57.1089 61.4347C57.0807 65.2918 57.5061 64.6837 53.8102 64.7244C51.4248 64.7506 51.414 64.7208 51.4083 62.3436C51.4058 61.2764 51.3998 60.2092 51.3887 59.142C51.3874 59.043 51.3367 58.9444 51.2515 58.6381Z" fill="white"/>
</g>
<defs>
<clipPath id="clip0_1471_1411">
<rect width="75" height="100" fill="white"/>
</clipPath>
</defs>
</svg>
