<svg width="30" height="30" viewBox="0 0 30 30" fill="none" xmlns="http://www.w3.org/2000/svg">
<path d="M18.7109 22.4355H11.2928C10.741 22.4355 10.293 22.8834 10.293 23.4356C10.293 23.9879 10.741 24.4355 11.2928 24.4355H18.7109C19.2627 24.4355 19.7112 23.9879 19.7112 23.4356C19.7112 22.8834 19.2627 22.4355 18.7109 22.4355Z" fill="#333333"/>
<path d="M13.0569 28.3418V28.8866C13.0569 29.5016 13.5547 30 14.1701 30H15.8322C16.4463 30 16.9454 29.5016 16.9454 28.8866V28.3418C18.2052 28.2523 19.2024 27.2129 19.2024 25.9307H10.7988C10.7989 27.2129 11.7972 28.2523 13.0569 28.3418Z" fill="#333333"/>
<path d="M15.0012 0C9.46587 0 4.97852 4.48692 4.97852 10.0221C4.97852 12.3577 5.78196 14.5017 7.12396 16.204C8.31069 17.7083 9.43553 19.3528 10.4051 21.0066H19.5957C20.5752 19.3371 21.6797 17.7234 22.8781 16.2028C24.2188 14.5013 25.0227 12.357 25.0227 10.022C25.0227 4.48698 20.5353 0 15.0012 0ZM15.0178 3.47713C11.4598 3.47713 8.56648 6.37084 8.56648 9.92786C8.56648 10.4801 8.11929 10.9279 7.56621 10.9279C7.01349 10.9279 6.5663 10.4801 6.5663 9.92786C6.5663 5.26821 10.3573 1.47719 15.0178 1.47719C15.5692 1.47719 16.0177 1.92481 16.0177 2.47704C16.0177 3.02927 15.5692 3.47713 15.0178 3.47713Z" fill="#333333"/>
</svg>
