<svg width="24" height="24" viewBox="0 0 24 24" fill="none" xmlns="http://www.w3.org/2000/svg">
<path d="M9.47187 15.2799C9.28187 15.2799 9.09188 15.2099 8.94188 15.0599C8.12188 14.2399 7.67188 13.1499 7.67188 11.9999C7.67188 9.60992 9.61188 7.66992 12.0019 7.66992C13.1519 7.66992 14.2419 8.11992 15.0619 8.93992C15.2019 9.07992 15.2819 9.26992 15.2819 9.46992C15.2819 9.66992 15.2019 9.85992 15.0619 9.99992L10.0019 15.0599C9.85188 15.2099 9.66187 15.2799 9.47187 15.2799ZM12.0019 9.16992C10.4419 9.16992 9.17187 10.4399 9.17187 11.9999C9.17187 12.4999 9.30188 12.9799 9.54188 13.3999L13.4019 9.53992C12.9819 9.29992 12.5019 9.16992 12.0019 9.16992Z" fill="#333333"/>
<path d="M5.6018 18.5099C5.4318 18.5099 5.2518 18.4499 5.1118 18.3299C4.0418 17.4199 3.0818 16.2999 2.2618 14.9999C1.2018 13.3499 1.2018 10.6599 2.2618 8.99998C4.7018 5.17998 8.2518 2.97998 12.0018 2.97998C14.2018 2.97998 16.3718 3.73998 18.2718 5.16998C18.6018 5.41998 18.6718 5.88998 18.4218 6.21998C18.1718 6.54998 17.7018 6.61998 17.3718 6.36998C15.7318 5.12998 13.8718 4.47998 12.0018 4.47998C8.7718 4.47998 5.6818 6.41998 3.5218 9.80998C2.7718 10.9799 2.7718 13.0199 3.5218 14.1899C4.2718 15.3599 5.1318 16.3699 6.0818 17.1899C6.3918 17.4599 6.4318 17.9299 6.1618 18.2499C6.0218 18.4199 5.8118 18.5099 5.6018 18.5099Z" fill="#333333"/>
<path d="M12.0005 21.02C10.6705 21.02 9.37055 20.75 8.12055 20.22C7.74055 20.06 7.56055 19.62 7.72055 19.24C7.88055 18.86 8.32055 18.68 8.70055 18.84C9.76055 19.29 10.8705 19.52 11.9905 19.52C15.2205 19.52 18.3105 17.58 20.4705 14.19C21.2205 13.02 21.2205 10.98 20.4705 9.81C20.1605 9.32 19.8205 8.85 19.4605 8.41C19.2005 8.09 19.2505 7.62 19.5705 7.35C19.8905 7.09 20.3605 7.13 20.6305 7.46C21.0205 7.94 21.4005 8.46 21.7405 9C22.8005 10.65 22.8005 13.34 21.7405 15C19.3005 18.82 15.7505 21.02 12.0005 21.02Z" fill="#333333"/>
<path d="M12.6915 16.2699C12.3415 16.2699 12.0215 16.0199 11.9515 15.6599C11.8715 15.2499 12.1415 14.8599 12.5515 14.7899C13.6515 14.5899 14.5715 13.6699 14.7715 12.5699C14.8515 12.1599 15.2415 11.8999 15.6515 11.9699C16.0615 12.0499 16.3315 12.4399 16.2515 12.8499C15.9315 14.5799 14.5515 15.9499 12.8315 16.2699C12.7815 16.2599 12.7415 16.2699 12.6915 16.2699Z" fill="#333333"/>
<path d="M2.00141 22.7497C1.81141 22.7497 1.62141 22.6797 1.47141 22.5297C1.18141 22.2397 1.18141 21.7597 1.47141 21.4697L8.94141 13.9997C9.23141 13.7097 9.71141 13.7097 10.0014 13.9997C10.2914 14.2897 10.2914 14.7697 10.0014 15.0597L2.53141 22.5297C2.38141 22.6797 2.19141 22.7497 2.00141 22.7497Z" fill="#333333"/>
<path d="M14.5307 10.2199C14.3407 10.2199 14.1507 10.1499 14.0007 9.99994C13.7107 9.70994 13.7107 9.22994 14.0007 8.93994L21.4707 1.46994C21.7607 1.17994 22.2407 1.17994 22.5307 1.46994C22.8207 1.75994 22.8207 2.23994 22.5307 2.52994L15.0607 9.99994C14.9107 10.1499 14.7207 10.2199 14.5307 10.2199Z" fill="#333333"/>
</svg>
