<svg width="22" height="22" viewBox="0 0 22 22" fill="none" xmlns="http://www.w3.org/2000/svg">
<path d="M18.3327 7.56248V16.5C18.3327 19.25 16.6918 20.1666 14.666 20.1666H7.33268C5.30685 20.1666 3.66602 19.25 3.66602 16.5V7.56248C3.66602 4.58331 5.30685 3.89581 7.33268 3.89581C7.33268 4.46415 7.56182 4.97748 7.93766 5.35331C8.31349 5.72914 8.82685 5.95831 9.39518 5.95831H12.6035C13.7402 5.95831 14.666 5.03248 14.666 3.89581C16.6918 3.89581 18.3327 4.58331 18.3327 7.56248Z" stroke="#292D32" stroke-width="1.5" stroke-linecap="round" stroke-linejoin="round"/>
<path d="M14.6673 3.89581C14.6673 5.03248 13.7415 5.95831 12.6048 5.95831H9.39648C8.82815 5.95831 8.31479 5.72914 7.93896 5.35331C7.56313 4.97748 7.33398 4.46415 7.33398 3.89581C7.33398 2.75915 8.25982 1.83331 9.39648 1.83331H12.6048C13.1732 1.83331 13.6865 2.06248 14.0623 2.43832C14.4382 2.81415 14.6673 3.32748 14.6673 3.89581Z" stroke="#292D32" stroke-width="1.5" stroke-linecap="round" stroke-linejoin="round"/>
<path d="M7.33398 11.9167H11.0007" stroke="#292D32" stroke-width="1.5" stroke-linecap="round" stroke-linejoin="round"/>
<path d="M7.33398 15.5833H14.6673" stroke="#292D32" stroke-width="1.5" stroke-linecap="round" stroke-linejoin="round"/>
</svg>
