<svg width="22" height="22" viewBox="0 0 22 22" fill="none" xmlns="http://www.w3.org/2000/svg">
<path d="M19.167 10.1933C19.167 14.6758 15.9129 18.8741 11.467 20.1025C11.1645 20.185 10.8345 20.185 10.532 20.1025C6.08619 18.8741 2.83203 14.6758 2.83203 10.1933V6.16914C2.83203 5.41747 3.40038 4.56497 4.10621 4.28081L9.21202 2.19083C10.3579 1.72333 11.6504 1.72333 12.7962 2.19083L17.902 4.28081C18.5987 4.56497 19.1762 5.41747 19.1762 6.16914L19.167 10.1933Z" stroke="#333333" stroke-width="1.5" stroke-linecap="round" stroke-linejoin="round"/>
<path d="M10.9993 11.4584C12.0119 11.4584 12.8327 10.6375 12.8327 9.62502C12.8327 8.6125 12.0119 7.79169 10.9993 7.79169C9.98683 7.79169 9.16602 8.6125 9.16602 9.62502C9.16602 10.6375 9.98683 11.4584 10.9993 11.4584Z" stroke="#333333" stroke-width="1.5" stroke-miterlimit="10" stroke-linecap="round" stroke-linejoin="round"/>
<path d="M11 11.4584V14.2084" stroke="#333333" stroke-width="1.5" stroke-miterlimit="10" stroke-linecap="round" stroke-linejoin="round"/>
</svg>
