<svg width="324" height="132" viewBox="0 0 324 132" fill="none" xmlns="http://www.w3.org/2000/svg">
<path opacity="0.1" d="M0 7.01993C0 3.14293 3.14293 0 7.01993 0H14.2031C18.0801 0 21.2231 3.14293 21.2231 7.01993V131.727H0V7.01993Z" fill="#694ACD"/>
<path opacity="0.1" d="M50.4636 110.91C50.4636 107.033 53.6065 103.89 57.4835 103.89H64.6667C68.5437 103.89 71.6867 107.033 71.6867 110.91V131.727H50.4636V110.91Z" fill="#694ACD"/>
<path opacity="0.1" d="M100.925 77.7953C100.925 73.9183 104.068 70.7754 107.945 70.7754H115.128C119.005 70.7754 122.148 73.9183 122.148 77.7953V131.727H100.925V77.7953Z" fill="#694ACD"/>
<path opacity="0.1" d="M151.389 101.365C151.389 97.4884 154.532 94.3455 158.409 94.3455H165.592C169.469 94.3455 172.612 97.4884 172.612 101.365V131.727H151.389V101.365Z" fill="#694ACD"/>
<path d="M201.85 31.9143C201.85 28.0373 204.993 24.8944 208.87 24.8944H216.054C219.931 24.8944 223.074 28.0373 223.074 31.9143V131.727H201.85V31.9143Z" fill="#694ACD"/>
<path opacity="0.1" d="M252.314 109.209C252.314 105.332 255.457 102.189 259.334 102.189H266.517C270.394 102.189 273.537 105.332 273.537 109.209V131.727H252.314V109.209Z" fill="#694ACD"/>
<path opacity="0.1" d="M302.778 61.4029C302.778 57.5259 305.921 54.3829 309.798 54.3829H316.981C320.858 54.3829 324.001 57.5259 324.001 61.4029V131.727H302.778V61.4029Z" fill="#694ACD"/>
</svg>
