<svg width="104" height="104" viewBox="0 0 104 104" fill="none" xmlns="http://www.w3.org/2000/svg">
<g clip-path="url(#clip0_0_17)">
<path d="M52 104C80.7188 104 104 80.7188 104 52C104 23.2812 80.7188 0 52 0C23.2812 0 0 23.2812 0 52C0 80.7188 23.2812 104 52 104Z" fill="#CFCFCF"/>
<mask id="mask0_0_17" style="mask-type:alpha" maskUnits="userSpaceOnUse" x="0" y="0" width="104" height="104">
<path d="M52 104C80.7188 104 104 80.7188 104 52C104 23.2812 80.7188 0 52 0C23.2812 0 0 23.2812 0 52C0 80.7188 23.2812 104 52 104Z" fill="#A3A3B5"/>
</mask>
<g mask="url(#mask0_0_17)">
<path d="M11.375 105.625C13.2201 87.9521 19.9571 73.2525 36.8165 64.8445C39.9563 63.2822 39.1016 62.3749 36.9518 60.5858C22.4791 48.5407 26.0084 26.2479 43.3503 19.5619C54.3106 15.3368 66.2781 19.2427 72.5749 29.1039C78.6687 38.6628 77.1621 51.1446 68.9187 59.0572C67.5222 60.4011 66.0072 61.619 64.1875 63.2066C82.7057 71.5139 90.7546 86.5662 92.625 105.625C65.5416 105.625 38.4584 105.625 11.375 105.625Z" fill="white"/>
</g>
</g>
<defs>
<clipPath id="clip0_0_17">
<rect width="104" height="104" fill="white"/>
</clipPath>
</defs>
</svg>
