<svg width="24" height="24" viewBox="0 0 24 24" fill="none" xmlns="http://www.w3.org/2000/svg">
<path d="M21.9707 18V19C21.9707 20.65 21.9707 22 18.9707 22H4.9707C1.9707 22 1.9707 20.65 1.9707 19V18C1.9707 17.45 2.4207 17 2.9707 17H20.9707C21.5207 17 21.9707 17.45 21.9707 18Z" fill="#62B47F"/>
<path d="M14.4095 5.18002C14.4595 4.98002 14.4895 4.79002 14.4995 4.58002C14.5295 3.42002 13.8195 2.40002 12.6995 2.10002C11.0195 1.64002 9.49953 2.90002 9.49953 4.50002C9.49953 4.74002 9.52953 4.96002 9.58953 5.18002C5.97953 5.95002 3.26953 9.16002 3.26953 13V14.5C3.26953 15.05 3.71953 15.5 4.26953 15.5H19.7195C20.2695 15.5 20.7195 15.05 20.7195 14.5V13C20.7195 9.16002 18.0195 5.96002 14.4095 5.18002ZM14.9995 11.75L8.87315 10.7846C8.46315 10.7846 8.24953 11.41 8.24953 11C8.24953 10.59 8.09 11.5002 8.5 11.5002L14.9995 10.25C15.4095 10.25 8.24953 10.59 8.24953 11C8.24953 11.41 15.4095 11.75 14.9995 11.75Z" fill="#62B47F"/>
</svg>
