<svg width="22" height="22" viewBox="0 0 22 22" fill="none" xmlns="http://www.w3.org/2000/svg">
<g clip-path="url(#clip0_0_198)">
<path d="M16.5421 5.4243C14.7708 4.97816 12.8958 5.4055 11.8736 6.48811C11.8325 6.53159 11.7749 6.55072 11.7276 6.58614C11.9819 4.33783 13.8734 2.57812 16.1883 2.57812C16.5446 2.57812 16.8328 2.28976 16.8328 1.93359C16.8328 1.57742 16.5446 1.28906 16.1883 1.28906C14.3044 1.28906 12.6442 2.20567 11.5841 3.60115C11.1615 1.54855 9.34049 0 7.16486 0H4.58674C4.23057 0 3.94221 0.288361 3.94221 0.644531C3.94221 3.13202 5.96644 5.15575 8.45393 5.15575H10.7439C10.575 5.62924 10.4719 6.12959 10.432 6.65042C10.0869 6.44649 8.61036 4.60135 5.62219 5.32611C3.75288 5.77879 2.32148 7.14087 1.79343 8.96922C1.32951 10.575 1.24709 12.5368 1.56751 14.3516C2.31141 18.5724 4.88383 22 7.55074 22C8.08013 22 8.58804 21.8703 9.06136 21.6141C10.2813 20.9533 11.7837 20.9545 13.0034 21.6141C13.4749 21.8703 13.9828 22 14.5135 22C17.1809 22 19.7529 18.5719 20.4968 14.3509C20.8058 12.6018 20.7403 10.6989 20.318 9.13103C19.8119 7.25215 18.4354 5.90149 16.5421 5.4243Z" fill="white"/>
</g>
<defs>
<clipPath id="clip0_0_198">
<rect width="22" height="22" fill="white"/>
</clipPath>
</defs>
</svg>
