<svg width="21" height="21" viewBox="0 0 21 21" fill="none" xmlns="http://www.w3.org/2000/svg">
<path d="M5.9154 19.25L15.0854 19.25C17.5004 19.25 18.4629 17.7713 18.5767 15.9688L19.0317 8.74128C19.1542 6.85128 17.6492 5.25003 15.7504 5.25003C15.2167 5.25003 14.7267 4.94378 14.4817 4.47128L13.8517 3.20253C13.4492 2.40628 12.3992 1.75003 11.5067 1.75003L9.50291 1.75003C8.60166 1.75003 7.55166 2.40628 7.14915 3.20253L6.51915 4.47128C6.27415 4.94378 5.78415 5.25003 5.2504 5.25003C3.35165 5.25003 1.84665 6.85128 1.96915 8.74128L2.42415 15.9688C2.52915 17.7713 3.5004 19.25 5.9154 19.25Z" stroke="#333333" stroke-linecap="round" stroke-linejoin="round"/>
<path d="M9.18706 6.99998H11.8121" stroke="#333333" stroke-width="1.5" stroke-linecap="round" stroke-linejoin="round"/>
<path d="M10.501 15.75C12.0672 15.75 13.3447 14.4725 13.3447 12.9062C13.3447 11.34 12.0672 10.0625 10.501 10.0625C8.9347 10.0625 7.6572 11.34 7.6572 12.9062C7.6572 14.4725 8.9347 15.75 10.501 15.75Z" stroke="#333333" stroke-width="1.5" stroke-linecap="round" stroke-linejoin="round"/>
</svg>
