<svg width="22" height="23" viewBox="0 0 22 23" fill="none" xmlns="http://www.w3.org/2000/svg">
<path d="M18.3327 8.06248V17C18.3327 19.75 16.6918 20.6666 14.666 20.6666H7.33268C5.30685 20.6666 3.66602 19.75 3.66602 17V8.06248C3.66602 5.08331 5.30685 4.39581 7.33268 4.39581C7.33268 4.96415 7.56182 5.47748 7.93766 5.85331C8.31349 6.22914 8.82685 6.45831 9.39518 6.45831H12.6035C13.7402 6.45831 14.666 5.53248 14.666 4.39581C16.6918 4.39581 18.3327 5.08331 18.3327 8.06248Z" stroke="#292D32" stroke-width="1.5" stroke-linecap="round" stroke-linejoin="round"/>
<path d="M14.6673 4.39581C14.6673 5.53248 13.7415 6.45831 12.6048 6.45831H9.39648C8.82815 6.45831 8.31479 6.22914 7.93896 5.85331C7.56313 5.47748 7.33398 4.96415 7.33398 4.39581C7.33398 3.25915 8.25982 2.33331 9.39648 2.33331H12.6048C13.1732 2.33331 13.6865 2.56248 14.0623 2.93832C14.4382 3.31415 14.6673 3.82748 14.6673 4.39581Z" stroke="#292D32" stroke-width="1.5" stroke-linecap="round" stroke-linejoin="round"/>
<path d="M7.33398 12.4167H11.0007" stroke="#292D32" stroke-width="1.5" stroke-linecap="round" stroke-linejoin="round"/>
<path d="M7.33398 16.0833H14.6673" stroke="#292D32" stroke-width="1.5" stroke-linecap="round" stroke-linejoin="round"/>
</svg>
