<svg width="22" height="23" viewBox="0 0 22 23" fill="none" xmlns="http://www.w3.org/2000/svg">
<path d="M11.1463 11.1516C11.1188 11.1516 11.1005 11.1516 11.073 11.1516C11.0272 11.1425 10.963 11.1425 10.908 11.1516C8.24969 11.0691 6.24219 8.97915 6.24219 6.40331C6.24219 3.78165 8.37802 1.64581 10.9997 1.64581C13.6213 1.64581 15.7572 3.78165 15.7572 6.40331C15.748 8.97915 13.7313 11.0691 11.1738 11.1516C11.1647 11.1516 11.1555 11.1516 11.1463 11.1516ZM10.9997 3.02081C9.13885 3.02081 7.61719 4.54248 7.61719 6.40331C7.61719 8.23665 9.04719 9.71248 10.8713 9.77665C10.9172 9.76748 11.0455 9.76748 11.1647 9.77665C12.9613 9.69415 14.373 8.21831 14.3822 6.40331C14.3822 4.54248 12.8605 3.02081 10.9997 3.02081Z" fill="#333333"/>
<path d="M11.156 21.1708C9.35929 21.1708 7.55346 20.7125 6.18763 19.7958C4.91346 18.9525 4.2168 17.7975 4.2168 16.5416C4.2168 15.2858 4.91346 14.1216 6.18763 13.2691C8.93763 11.445 13.3926 11.445 16.1243 13.2691C17.3893 14.1125 18.0951 15.2675 18.0951 16.5233C18.0951 17.7791 17.3985 18.9433 16.1243 19.7958C14.7493 20.7125 12.9526 21.1708 11.156 21.1708ZM6.94846 14.4241C6.06846 15.0108 5.5918 15.7625 5.5918 16.5508C5.5918 17.33 6.07763 18.0816 6.94846 18.6591C9.23095 20.19 13.081 20.19 15.3635 18.6591C16.2435 18.0725 16.7201 17.3208 16.7201 16.5325C16.7201 15.7533 16.2343 15.0016 15.3635 14.4241C13.081 12.9025 9.23095 12.9025 6.94846 14.4241Z" fill="#333333"/>
</svg>
