<svg width="22" height="23" viewBox="0 0 22 23" fill="none" xmlns="http://www.w3.org/2000/svg">
<path d="M19.167 10.6933C19.167 15.1758 15.9129 19.3741 11.467 20.6025C11.1645 20.685 10.8345 20.685 10.532 20.6025C6.08619 19.3741 2.83203 15.1758 2.83203 10.6933V6.66914C2.83203 5.91747 3.40038 5.06497 4.10621 4.78081L9.21202 2.69083C10.3579 2.22333 11.6504 2.22333 12.7962 2.69083L17.902 4.78081C18.5987 5.06497 19.1762 5.91747 19.1762 6.66914L19.167 10.6933Z" stroke="#333333" stroke-width="1.5" stroke-linecap="round" stroke-linejoin="round"/>
<path d="M10.9993 11.9584C12.0119 11.9584 12.8327 11.1375 12.8327 10.125C12.8327 9.1125 12.0119 8.29169 10.9993 8.29169C9.98683 8.29169 9.16602 9.1125 9.16602 10.125C9.16602 11.1375 9.98683 11.9584 10.9993 11.9584Z" stroke="#333333" stroke-width="1.5" stroke-miterlimit="10" stroke-linecap="round" stroke-linejoin="round"/>
<path d="M11 11.9584V14.7084" stroke="#333333" stroke-width="1.5" stroke-miterlimit="10" stroke-linecap="round" stroke-linejoin="round"/>
</svg>
