<svg width="396" height="54" viewBox="0 0 396 54" fill="none" xmlns="http://www.w3.org/2000/svg">
<path d="M0 8C0 3.58172 3.58172 0 8 0H388C392.418 0 396 3.58172 396 8V46C396 50.4183 392.418 54 388 54H8.00001C3.58173 54 0 50.4183 0 46V8Z" fill="#F8F8F8"/>
<path d="M35.167 26.6933C35.167 31.1758 31.9129 35.3741 27.467 36.6025C27.1645 36.685 26.8345 36.685 26.532 36.6025C22.0862 35.3741 18.832 31.1758 18.832 26.6933V22.6691C18.832 21.9175 19.4004 21.065 20.1062 20.7808L25.212 18.6908C26.3579 18.2233 27.6504 18.2233 28.7962 18.6908L33.902 20.7808C34.5987 21.065 35.1762 21.9175 35.1762 22.6691L35.167 26.6933Z" stroke="#333333" stroke-width="1.5" stroke-linecap="round" stroke-linejoin="round"/>
<path d="M26.9993 27.9584C28.0119 27.9584 28.8327 27.1375 28.8327 26.125C28.8327 25.1125 28.0119 24.2917 26.9993 24.2917C25.9868 24.2917 25.166 25.1125 25.166 26.125C25.166 27.1375 25.9868 27.9584 26.9993 27.9584Z" stroke="#333333" stroke-width="1.5" stroke-miterlimit="10" stroke-linecap="round" stroke-linejoin="round"/>
<path d="M27 27.9584V30.7084" stroke="#333333" stroke-width="1.5" stroke-miterlimit="10" stroke-linecap="round" stroke-linejoin="round"/>
<path d="M47.0938 21.7266H51.1172C52.1745 21.7266 53.0391 22.0651 53.7109 22.7422C54.388 23.4141 54.7266 24.2812 54.7266 25.3438C54.7266 26.4115 54.388 27.2839 53.7109 27.9609C53.0339 28.638 52.1641 28.9766 51.1016 28.9766H48.5V33H47.0938V21.7266ZM48.5 22.9766V27.7266H50.75C51.5521 27.7266 52.1745 27.5182 52.6172 27.1016C53.0599 26.6797 53.2812 26.0938 53.2812 25.3438C53.2812 24.5938 53.0599 24.013 52.6172 23.6016C52.1797 23.1849 51.5573 22.9766 50.75 22.9766H48.5ZM56.1328 33V24.875H57.4141V26.2031H57.4453C57.5807 25.75 57.8229 25.3932 58.1719 25.1328C58.526 24.8672 58.9401 24.7344 59.4141 24.7344C59.5234 24.7344 59.7057 24.7526 59.9609 24.7891V26.1094C59.8151 26.0573 59.5729 26.0312 59.2344 26.0312C58.7083 26.0312 58.2865 26.2057 57.9688 26.5547C57.651 26.9036 57.4922 27.3646 57.4922 27.9375V33H56.1328ZM61.1406 33V24.875H62.5V33H61.1406ZM61.8203 23.5078C61.5911 23.5078 61.3932 23.4245 61.2266 23.2578C61.0599 23.0911 60.9766 22.8932 60.9766 22.6641C60.9766 22.4297 61.0599 22.2318 61.2266 22.0703C61.3932 21.9036 61.5911 21.8203 61.8203 21.8203C62.0547 21.8203 62.2552 21.9036 62.4219 22.0703C62.5885 22.2318 62.6719 22.4297 62.6719 22.6641C62.6719 22.8932 62.5885 23.0911 62.4219 23.2578C62.2552 23.4245 62.0547 23.5078 61.8203 23.5078ZM71 24.875L68.0156 33H66.625L63.6328 24.875H65.0625L67.3047 31.5547H67.3359L69.5859 24.875H71ZM74.5938 31.9844C75.2344 31.9844 75.7708 31.7865 76.2031 31.3906C76.6406 30.9896 76.8594 30.4974 76.8594 29.9141V29.25L74.6875 29.3828C74.1406 29.4193 73.7161 29.5521 73.4141 29.7812C73.1172 30.0104 72.9688 30.3177 72.9688 30.7031C72.9688 31.0885 73.1172 31.3984 73.4141 31.6328C73.7109 31.8672 74.1042 31.9844 74.5938 31.9844ZM74.2891 33.1406C73.4818 33.1406 72.8281 32.9167 72.3281 32.4688C71.8333 32.0208 71.5859 31.4323 71.5859 30.7031C71.5859 30.0052 71.8411 29.4479 72.3516 29.0312C72.8672 28.6146 73.5938 28.3802 74.5312 28.3281L76.8594 28.1953V27.5156C76.8594 27.0208 76.7031 26.6328 76.3906 26.3516C76.0781 26.0703 75.6406 25.9297 75.0781 25.9297C74.5625 25.9297 74.1432 26.0443 73.8203 26.2734C73.4974 26.4974 73.2917 26.8125 73.2031 27.2188H71.8906C71.9375 26.4948 72.25 25.901 72.8281 25.4375C73.4115 24.9688 74.1719 24.7344 75.1094 24.7344C76.0625 24.7344 76.8177 24.974 77.375 25.4531C77.9375 25.9323 78.2188 26.5755 78.2188 27.3828V33H76.9297V31.6016H76.8984C76.6536 32.0651 76.2943 32.4375 75.8203 32.7188C75.3464 33 74.8359 33.1406 74.2891 33.1406ZM86.6953 27.5391H85.3672C85.263 27.0703 85.0312 26.6849 84.6719 26.3828C84.3177 26.0807 83.8568 25.9297 83.2891 25.9297C82.5807 25.9297 82.0104 26.2031 81.5781 26.75C81.1458 27.2917 80.9297 28.0208 80.9297 28.9375C80.9297 29.8698 81.1458 30.6042 81.5781 31.1406C82.0156 31.6771 82.5911 31.9453 83.3047 31.9453C83.8516 31.9453 84.3021 31.8099 84.6562 31.5391C85.0156 31.263 85.2552 30.8776 85.375 30.3828H86.7109C86.6068 31.1953 86.2396 31.8594 85.6094 32.375C84.9844 32.8854 84.2135 33.1406 83.2969 33.1406C82.1615 33.1406 81.2526 32.7656 80.5703 32.0156C79.888 31.2604 79.5469 30.2344 79.5469 28.9375C79.5469 27.6615 79.888 26.6432 80.5703 25.8828C81.2526 25.1172 82.1562 24.7344 83.2812 24.7344C84.25 24.7344 85.0365 25.0078 85.6406 25.5547C86.25 26.1016 86.6016 26.763 86.6953 27.5391ZM88.6328 36.0391C88.3932 36.0391 88.1979 36.0234 88.0469 35.9922V34.8516C88.1719 34.8776 88.349 34.8906 88.5781 34.8906C88.9583 34.8906 89.263 34.7891 89.4922 34.5859C89.7214 34.388 89.9141 34.0521 90.0703 33.5781L90.2578 33.0078L87.2578 24.875H88.7109L90.9609 31.6406H90.9844L93.2344 24.875H94.6641L91.4688 33.5703C91.1198 34.5182 90.7422 35.1667 90.3359 35.5156C89.9349 35.8646 89.3672 36.0391 88.6328 36.0391ZM99.2344 21.7266H103.258C104.315 21.7266 105.18 22.0651 105.852 22.7422C106.529 23.4141 106.867 24.2812 106.867 25.3438C106.867 26.4115 106.529 27.2839 105.852 27.9609C105.174 28.638 104.305 28.9766 103.242 28.9766H100.641V33H99.2344V21.7266ZM100.641 22.9766V27.7266H102.891C103.693 27.7266 104.315 27.5182 104.758 27.1016C105.201 26.6797 105.422 26.0938 105.422 25.3438C105.422 24.5938 105.201 24.013 104.758 23.6016C104.32 23.1849 103.698 22.9766 102.891 22.9766H100.641ZM111.25 33.1406C110.115 33.1406 109.203 32.763 108.516 32.0078C107.828 31.2474 107.484 30.224 107.484 28.9375C107.484 27.651 107.828 26.6302 108.516 25.875C109.203 25.1146 110.115 24.7344 111.25 24.7344C112.38 24.7344 113.289 25.1146 113.977 25.875C114.664 26.6302 115.008 27.651 115.008 28.9375C115.008 30.2188 114.664 31.2396 113.977 32C113.289 32.7604 112.38 33.1406 111.25 33.1406ZM109.508 31.1484C109.94 31.6797 110.521 31.9453 111.25 31.9453C111.979 31.9453 112.557 31.6823 112.984 31.1562C113.411 30.625 113.625 29.8854 113.625 28.9375C113.625 27.9896 113.411 27.2526 112.984 26.7266C112.557 26.1953 111.979 25.9297 111.25 25.9297C110.521 25.9297 109.94 26.1953 109.508 26.7266C109.081 27.2578 108.867 27.9948 108.867 28.9375C108.867 29.8802 109.081 30.6172 109.508 31.1484ZM116.453 33V21.7266H117.812V33H116.453ZM119.719 33V24.875H121.078V33H119.719ZM120.398 23.5078C120.169 23.5078 119.971 23.4245 119.805 23.2578C119.638 23.0911 119.555 22.8932 119.555 22.6641C119.555 22.4297 119.638 22.2318 119.805 22.0703C119.971 21.9036 120.169 21.8203 120.398 21.8203C120.633 21.8203 120.833 21.9036 121 22.0703C121.167 22.2318 121.25 22.4297 121.25 22.6641C121.25 22.8932 121.167 23.0911 121 23.2578C120.833 23.4245 120.633 23.5078 120.398 23.5078ZM129.664 27.5391H128.336C128.232 27.0703 128 26.6849 127.641 26.3828C127.286 26.0807 126.826 25.9297 126.258 25.9297C125.549 25.9297 124.979 26.2031 124.547 26.75C124.115 27.2917 123.898 28.0208 123.898 28.9375C123.898 29.8698 124.115 30.6042 124.547 31.1406C124.984 31.6771 125.56 31.9453 126.273 31.9453C126.82 31.9453 127.271 31.8099 127.625 31.5391C127.984 31.263 128.224 30.8776 128.344 30.3828H129.68C129.576 31.1953 129.208 31.8594 128.578 32.375C127.953 32.8854 127.182 33.1406 126.266 33.1406C125.13 33.1406 124.221 32.7656 123.539 32.0156C122.857 31.2604 122.516 30.2344 122.516 28.9375C122.516 27.6615 122.857 26.6432 123.539 25.8828C124.221 25.1172 125.125 24.7344 126.25 24.7344C127.219 24.7344 128.005 25.0078 128.609 25.5547C129.219 26.1016 129.57 26.763 129.664 27.5391ZM131.602 36.0391C131.362 36.0391 131.167 36.0234 131.016 35.9922V34.8516C131.141 34.8776 131.318 34.8906 131.547 34.8906C131.927 34.8906 132.232 34.7891 132.461 34.5859C132.69 34.388 132.883 34.0521 133.039 33.5781L133.227 33.0078L130.227 24.875H131.68L133.93 31.6406H133.953L136.203 24.875H137.633L134.438 33.5703C134.089 34.5182 133.711 35.1667 133.305 35.5156C132.904 35.8646 132.336 36.0391 131.602 36.0391Z" fill="#333333"/>
<path fill-rule="evenodd" clip-rule="evenodd" d="M367.915 21.3665C367.719 21.5617 367.719 21.8783 367.915 22.0736L372.261 26.4202C372.58 26.7383 372.58 27.2617 372.261 27.5798L367.915 31.9264C367.719 32.1217 367.719 32.4383 367.915 32.6336C368.11 32.8288 368.427 32.8288 368.622 32.6336L372.969 28.2869C373.677 27.5783 373.677 26.4217 372.969 25.7131L368.622 21.3665C368.427 21.1712 368.11 21.1712 367.915 21.3665Z" fill="#333333"/>
</svg>
